<?xml version="1.0" encoding="UTF-8"?> <svg xmlns="http://www.w3.org/2000/svg" width="32" height="32" viewBox="0 0 32 32" fill="none"><path d="M27.6859 26.9216C30.2779 24.1541 31.7808 20.6272 31.9771 16.8501C31.9776 16.8405 31.9787 16.8309 31.9792 16.8208C31.9931 16.5483 32 16.2747 32 16C32 15.6544 31.9851 15.312 31.9632 14.9717C31.9595 14.9184 31.9552 14.8651 31.9509 14.8117C31.9264 14.4805 31.8928 14.1515 31.848 13.8261C31.8464 13.8155 31.8464 13.8048 31.8448 13.7941L31.8352 13.7253C31.8256 13.6587 31.8181 13.5915 31.8075 13.5248L31.7813 13.3339H31.7733C30.5003 5.77707 23.9141 0 16 0C8.99947 0 3.03893 4.52107 0.8736 10.7952L0.858667 10.7925L0.719467 11.2427C0.701333 11.3003 0.6896 11.36 0.672 11.4181C0.591467 11.6864 0.518933 11.9584 0.452267 12.2325C0.4256 12.344 0.399467 12.4549 0.374933 12.5669C0.3024 12.8976 0.236267 13.2315 0.184533 13.5696C0.1792 13.6043 0.176533 13.6389 0.1712 13.6731C0.124267 13.9936 0.0890667 14.3173 0.0618667 14.6437C0.0538667 14.7376 0.0464 14.8315 0.0405333 14.9253C0.0165333 15.2805 0 15.6384 0 16C0 20.0277 1.4688 23.7952 4.15253 26.7419C4.15893 26.7493 4.16533 26.7563 4.17227 26.7632C4.33013 26.936 4.49173 27.1056 4.65813 27.2725C4.6784 27.2928 4.69813 27.3131 4.7184 27.3333L4.71467 27.3403L4.93973 27.5525C4.96853 27.5803 4.9952 27.6091 5.02453 27.6368L5.5072 28.0923L5.5168 28.0763C5.59093 28.1408 5.6656 28.2032 5.7408 28.2661C5.8128 28.3269 5.8864 28.3861 5.95947 28.4453C6.08907 28.5504 6.21973 28.6539 6.35253 28.7547C6.41707 28.8037 6.48267 28.8517 6.54773 28.8997C6.69227 29.0064 6.8384 29.1104 6.98613 29.2117C7.04373 29.2512 7.10187 29.2901 7.16053 29.3285C7.31787 29.4331 7.47627 29.5349 7.63627 29.6341C7.6912 29.6677 7.74667 29.7013 7.80213 29.7344C7.96693 29.8331 8.13333 29.9291 8.30187 30.0219C8.35733 30.0523 8.41333 30.0827 8.46933 30.1125C8.6384 30.2032 8.80907 30.2907 8.9808 30.3749C9.04053 30.4043 9.1008 30.4331 9.16107 30.4619C9.33013 30.5419 9.50027 30.6192 9.67147 30.6933C9.73867 30.7221 9.80587 30.7509 9.8736 30.7792C10.0395 30.848 10.2064 30.9136 10.3744 30.9771C10.4507 31.0059 10.5275 31.0347 10.6043 31.0624C10.7648 31.12 10.9264 31.1744 11.0891 31.2267C11.1755 31.2544 11.2619 31.2827 11.3488 31.3093C11.504 31.3563 11.6597 31.4 11.816 31.4421C11.912 31.4683 12.008 31.4949 12.1045 31.5189C12.2549 31.5568 12.4059 31.5904 12.5573 31.624C12.6608 31.6469 12.7643 31.6704 12.8688 31.6912C13.0176 31.7205 13.1669 31.7461 13.3168 31.7712C13.4245 31.7893 13.5323 31.8091 13.6405 31.8256C13.7925 31.848 13.9451 31.8656 14.0981 31.8837C14.2053 31.8965 14.312 31.9115 14.4203 31.9221C14.5893 31.9387 14.7595 31.9499 14.9296 31.9611C15.0219 31.9669 15.1131 31.976 15.2053 31.9808C15.4693 31.9931 15.7344 32 16 32C16.2704 32 16.5397 31.9931 16.8075 31.9797C16.8784 31.976 16.9488 31.9685 17.0192 31.9643C17.2165 31.952 17.4139 31.9387 17.6101 31.9195C17.6805 31.9125 17.7493 31.9019 17.8192 31.8939C18.0165 31.8715 18.2133 31.8485 18.4091 31.8187C18.464 31.8101 18.5179 31.7995 18.5728 31.7904C18.7829 31.7563 18.9925 31.72 19.2005 31.6779C19.2379 31.6704 19.2747 31.6613 19.312 31.6533C19.5365 31.6059 19.7605 31.5552 19.9824 31.4981C20.0016 31.4933 20.0203 31.4875 20.0389 31.4827C20.2779 31.4203 20.5157 31.3531 20.7509 31.28C20.7531 31.2795 20.7552 31.2784 20.7573 31.2779C21.992 30.8939 23.1744 30.3595 24.2832 29.6843C24.2928 29.6784 24.3024 29.672 24.312 29.6661C24.5163 29.5413 24.7179 29.4123 24.9168 29.2779C24.9504 29.2555 24.9835 29.2315 25.0165 29.2085C25.1877 29.0907 25.3584 28.9712 25.5253 28.8464C25.5904 28.7979 25.6539 28.7472 25.7184 28.6976C25.8512 28.5952 25.984 28.4928 26.1141 28.3861C26.2112 28.3067 26.3056 28.224 26.4005 28.1424C26.496 28.0603 26.592 27.9797 26.6853 27.8955C26.7595 27.8288 26.8315 27.76 26.9045 27.6923L26.9168 27.6997L27.2139 27.4075C27.2699 27.3525 27.3216 27.2949 27.3765 27.2395L27.6949 26.9264L27.6859 26.9216ZM21.8085 29.7573C21.8085 29.7573 21.8064 29.7584 21.8048 29.7589C21.5893 29.8501 21.3707 29.936 21.1504 30.0176C21.1317 30.0245 21.1136 30.0309 21.0949 30.0373C20.8933 30.1109 20.6891 30.1797 20.4832 30.2448C20.448 30.256 20.4123 30.2667 20.3771 30.2779C20.1883 30.336 19.9979 30.3899 19.8059 30.4405C19.756 30.4538 19.7061 30.4665 19.6562 30.4793L19.6555 30.4795C19.4779 30.5243 19.2987 30.5653 19.1189 30.6037C19.056 30.6171 18.9925 30.6309 18.9291 30.6437C18.7611 30.6773 18.5915 30.7067 18.4219 30.7344C18.3477 30.7467 18.2741 30.7595 18.2 30.7707C18.0363 30.7952 17.8709 30.8149 17.7056 30.8336C17.6267 30.8427 17.5488 30.8533 17.4699 30.8608C17.2992 30.8773 17.1269 30.8891 16.9541 30.9003C16.8816 30.9051 16.8091 30.912 16.736 30.9152C16.4923 30.9264 16.2469 30.9333 16 30.9333C15.7552 30.9333 15.512 30.9264 15.2704 30.9147C15.1872 30.9104 15.104 30.9029 15.0208 30.8976C14.8624 30.8875 14.7045 30.8768 14.5477 30.8613C14.4501 30.8517 14.3531 30.8395 14.256 30.8277C14.1147 30.8112 13.9728 30.7941 13.8325 30.7739C13.7317 30.7589 13.6315 30.7419 13.5312 30.7253C13.3941 30.7024 13.2576 30.6784 13.1221 30.6523C13.024 30.6331 12.9269 30.6123 12.8293 30.5909C12.6907 30.5611 12.5531 30.5291 12.416 30.4955C12.3243 30.4731 12.2331 30.4496 12.1419 30.4251C11.9984 30.3867 11.8555 30.3461 11.7141 30.3035C11.632 30.2789 11.5499 30.2544 11.4683 30.2283C11.3152 30.1792 11.1632 30.1275 11.0117 30.0736C10.9435 30.0491 10.8747 30.0256 10.8064 30.0005C10.6379 29.9376 10.4715 29.8715 10.3061 29.8027C10.2565 29.7824 10.2064 29.7627 10.1573 29.7419C9.96747 29.6608 9.77973 29.5755 9.5936 29.4864C9.56853 29.4747 9.54347 29.464 9.51893 29.4517C8.65653 29.0347 7.84 28.5371 7.07947 27.9685C7.05173 27.9477 7.02453 27.9253 6.9968 27.9045C6.84053 27.7861 6.68587 27.6656 6.5344 27.5413C6.4704 27.4885 6.408 27.4331 6.344 27.3787C6.248 27.2971 6.15147 27.2149 6.0576 27.1307C6.06667 27.1109 6.072 27.0885 6.08107 27.0688C6.17653 26.8597 6.26133 26.6443 6.328 26.4149C6.4176 26.104 6.5056 25.7787 6.59253 25.4475C6.59614 25.4336 6.59975 25.4198 6.60336 25.406C6.62801 25.3117 6.65261 25.2175 6.6768 25.1221C6.752 24.8272 6.8256 24.5285 6.89653 24.2251C6.93173 24.0741 6.9648 23.9221 6.99893 23.7701C7.02133 23.6688 7.04533 23.5685 7.0672 23.4667H9.2656C9.29067 23.5696 9.3184 23.6677 9.34507 23.768C9.39733 23.9717 9.45013 24.1659 9.50453 24.344C9.576 24.5781 9.64853 24.7979 9.72213 25.0053C10.8283 28.1099 12.2299 28.2667 15.9995 28.2667C18.3221 28.2667 21.0944 27.8869 21.9211 24.9269C22.0021 24.6357 22.0843 24.3248 22.1659 24.0048C22.2107 23.8309 22.2544 23.6576 22.2976 23.4837C22.2992 23.4779 22.3003 23.4725 22.3019 23.4667H24.2715C24.2923 23.5445 24.3163 23.6165 24.3381 23.6928C24.3963 23.9029 24.4539 24.1013 24.5141 24.2827C24.6 24.5435 24.6891 24.7883 24.7813 25.0261C24.8005 25.0763 24.8208 25.128 24.8405 25.1771C24.9333 25.4064 25.0304 25.6251 25.1344 25.8304C25.1525 25.8661 25.1728 25.9003 25.1915 25.9355C25.2896 26.12 25.3947 26.2944 25.5072 26.4571C25.5259 26.4843 25.5435 26.5136 25.5627 26.5403C25.6875 26.712 25.8251 26.8683 25.9723 27.0128C25.9888 27.0288 26.0011 27.0496 26.0176 27.0651C25.8491 27.2181 25.6768 27.3669 25.5024 27.512C24.3936 28.4283 23.1509 29.1888 21.8085 29.7573ZM1.09333 16.8597C1.0912 16.8251 1.08747 16.7909 1.08587 16.7568C1.07307 16.5061 1.06667 16.2539 1.06667 16C1.06667 15.6955 1.07893 15.392 1.09707 15.0896C1.10293 14.9963 1.11093 14.904 1.1184 14.8117C1.13547 14.5963 1.15733 14.3819 1.18347 14.1675C1.19573 14.0683 1.20693 13.9691 1.22133 13.8704C1.25707 13.6203 1.2992 13.3712 1.34773 13.1232C1.36587 13.0315 1.38507 12.9403 1.40427 12.8491C1.45333 12.6197 1.50827 12.3915 1.56853 12.1643C1.58133 12.1157 1.59627 12.0683 1.6096 12.0197C2.33013 12.1733 3.09013 12.3883 3.87573 12.6608C5.49493 13.224 7.0656 14.8251 6.92427 17.1333C6.87573 17.9275 6.77813 18.8123 6.64853 19.7333H1.5392C1.35573 19.0235 1.224 18.2928 1.14667 17.5467C1.1456 17.5381 1.14453 17.5296 1.14347 17.5205C1.1216 17.3019 1.1056 17.0811 1.09333 16.8597ZM1.8624 20.8H6.48587C6.3216 21.7973 6.12373 22.8176 5.89547 23.8139C5.87947 23.8837 5.8624 23.9525 5.8464 24.0224C5.78133 24.3003 5.71413 24.5755 5.6448 24.8475C5.62027 24.9451 5.5952 25.0427 5.57013 25.1392C5.4832 25.472 5.39467 25.8005 5.30293 26.1189C5.28213 26.1915 5.2528 26.2581 5.22827 26.3275C5.13707 26.2325 5.04427 26.1392 4.95573 26.0416C4.95307 26.0384 4.94987 26.0352 4.9472 26.032C3.58613 24.5333 2.52853 22.7563 1.8624 20.8ZM9.6 16.0256C9.58293 14.0064 13.2517 10.5584 15.3477 10.1717C15.4864 10.1456 15.6117 10.1333 15.7227 10.1333C15.7904 10.1333 15.8528 10.1381 15.9099 10.1472C17.8928 10.4864 22.4688 14.0816 22.3995 16.0107C22.3611 17.0907 22.2149 18.3691 21.9877 19.7328H19.7333V17.5995H16.5333V19.7328H15.4667V17.5995H12.2667V19.7328H9.76107C9.64267 18.3851 9.60907 17.0859 9.6 16.0256ZM18.6667 18.6667V21.8667H17.6V18.6667H18.6667ZM14.4 18.6667V21.8667H13.3333V18.6667H14.4ZM12.2667 20.8V22.9333H15.4667V20.8H16.5333V22.9333H19.7333V20.8H21.7952C21.6939 21.3275 21.584 21.8608 21.4603 22.4L21.4261 22.5424C21.3995 22.6571 21.3712 22.7723 21.3435 22.8869C21.2773 23.1643 21.2107 23.4341 21.1445 23.6944C21.0635 24.0101 20.9808 24.3264 20.8933 24.64C20.3925 26.4341 18.9291 27.2 15.9995 27.2C12.2091 27.2 11.4656 27.1029 10.5243 24.0315C10.4432 23.7669 10.3733 23.4917 10.3061 23.2155C10.2763 23.0907 10.2464 22.9605 10.216 22.8203L10.1968 22.7312C10.0619 22.0997 9.95467 21.4517 9.87413 20.8005L12.2667 20.8ZM24.5333 15.9541C24.5232 14.8187 26.0923 14.6501 28.4875 14.5216C28.8235 14.504 29.1584 14.4859 29.4821 14.4624C29.9232 14.4309 30.3803 14.4112 30.8453 14.4037C30.904 14.944 30.9333 15.4784 30.9333 16C30.9333 16.2523 30.9269 16.5029 30.9141 16.752C30.9115 16.8037 30.9061 16.8549 30.9029 16.9067C30.8907 17.1072 30.8773 17.3077 30.8571 17.5067C30.8533 17.5451 30.8475 17.5824 30.8432 17.6208C30.8197 17.8357 30.7936 18.0496 30.7616 18.2619C30.7595 18.2763 30.7568 18.2907 30.7541 18.3051C30.6795 18.7893 30.5813 19.2656 30.4608 19.7333H24.7195C24.6096 18.6011 24.5461 17.3493 24.5333 15.9541ZM30.1376 20.8C29.4288 22.8821 28.2731 24.7584 26.7835 26.3147C26.7584 26.2917 26.7328 26.2693 26.7077 26.2448C26.6848 26.2219 26.6613 26.2 26.6389 26.1755C26.5888 26.1211 26.5397 26.0619 26.4912 26C26.4773 25.9819 26.4624 25.9664 26.4485 25.9477C26.3877 25.8661 26.3285 25.7776 26.2704 25.6827C26.2528 25.6544 26.2363 25.6224 26.2192 25.5925C26.1781 25.5216 26.1371 25.4485 26.0971 25.3701C26.0757 25.3285 26.0544 25.2843 26.0336 25.2405C25.9973 25.1653 25.9611 25.0869 25.9253 25.0053C25.904 24.9568 25.8832 24.9083 25.8619 24.8576C25.8245 24.7675 25.7867 24.6715 25.7493 24.5733C25.7312 24.5253 25.7125 24.4789 25.6944 24.4288C25.6389 24.2773 25.5835 24.1195 25.5269 23.9488C25.4629 23.7541 25.4043 23.5483 25.3461 23.3397C25.3056 23.1893 25.2645 23.0293 25.2224 22.8544C25.0709 22.2293 24.944 21.5461 24.8432 20.8005L30.1376 20.8ZM24.0261 22.4H22.5536C22.6741 21.8603 22.7813 21.3269 22.8805 20.8H23.7616C23.8347 21.3664 23.9237 21.8965 24.0261 22.4ZM9.04053 22.4H7.2848C7.38933 21.8629 7.48533 21.3285 7.57013 20.8H8.79733C8.86507 21.3675 8.9472 21.8955 9.04053 22.4ZM16 1.06667C23.3275 1.06667 29.4352 6.37333 30.6923 13.344C30.2565 13.3531 29.8213 13.3691 29.4059 13.3989C29.1076 13.4205 28.8009 13.4368 28.4918 13.4533C28.4716 13.4544 28.4512 13.4555 28.4309 13.4565C26.1048 13.5808 23.4691 13.7216 23.4666 15.9352C23.4665 15.9445 23.4666 15.9538 23.4667 15.9632C23.4667 15.9711 23.4668 15.979 23.4669 15.9869C23.4801 17.372 23.5387 18.6112 23.6432 19.7328H23.0672C23.2853 18.3877 23.4272 17.1243 23.4656 16.0491C23.4663 16.0284 23.4668 16.0077 23.4669 15.9869C23.467 15.9697 23.4669 15.9525 23.4666 15.9352C23.4169 13.2424 18.3167 9.47673 16.0891 9.09547C15.8155 9.0496 15.5003 9.05813 15.1541 9.12267C12.5813 9.59733 8.512 13.4549 8.53387 16.0347C8.5456 17.3989 8.59733 18.624 8.69067 19.7333H7.728C7.84907 18.8437 7.9408 17.9851 7.9888 17.1989C8.16427 14.3328 6.22507 12.3483 4.2256 11.6539C3.4336 11.3787 2.66507 11.1605 1.93067 10.9995C3.992 5.2176 9.51893 1.06667 16 1.06667Z" fill="#00303E"></path><path d="M9.6 16.0256C9.58293 14.0064 13.2517 10.5584 15.3477 10.1717C15.4864 10.1456 15.6117 10.1333 15.7227 10.1333C15.7904 10.1333 15.8528 10.1381 15.9099 10.1472C17.8928 10.4864 22.4688 14.0816 22.3995 16.0107C22.3611 17.0907 22.2149 18.3691 21.9877 19.7328H19.7333V17.5995H16.5333V19.7328H15.4667V17.5995H12.2667V19.7328H9.76107C9.64267 18.3851 9.60907 17.0859 9.6 16.0256Z" fill="white"></path><path d="M12.2667 20.8V22.9333H15.4667V20.8H16.5333V22.9333H19.7333V20.8H21.7952C21.6939 21.3275 21.584 21.8608 21.4603 22.4L21.4261 22.5424C21.3995 22.6571 21.3712 22.7723 21.3435 22.8869C21.2773 23.1643 21.2107 23.4341 21.1445 23.6944C21.0635 24.0101 20.9808 24.3264 20.8933 24.64C20.3925 26.4341 18.9291 27.2 15.9995 27.2C12.2091 27.2 11.4656 27.1029 10.5243 24.0315C10.4432 23.7669 10.3733 23.4917 10.3061 23.2155C10.2763 23.0907 10.2464 22.9605 10.216 22.8203L10.1968 22.7312C10.0619 22.0997 9.95467 21.4517 9.87413 20.8005L12.2667 20.8Z" fill="white"></path><path d="M14.4 18.6667V21.8667H13.3333V18.6667H14.4Z" fill="#CCE0FF"></path><path d="M18.6667 18.6667V21.8667H17.6V18.6667H18.6667Z" fill="#CCE0FF"></path><path d="M24.5333 15.9541C24.5232 14.8187 26.0923 14.6501 28.4875 14.5216C28.8235 14.504 29.1584 14.4859 29.4821 14.4624C29.9232 14.4309 30.3803 14.4112 30.8453 14.4037C30.904 14.944 30.9333 15.4784 30.9333 16C30.9333 16.2523 30.9269 16.5029 30.9141 16.752C30.9115 16.8037 30.9061 16.8549 30.9029 16.9067C30.8907 17.1072 30.8773 17.3077 30.8571 17.5067C30.8533 17.5451 30.8475 17.5824 30.8432 17.6208C30.8197 17.8357 30.7936 18.0496 30.7616 18.2619C30.7595 18.2763 30.7568 18.2907 30.7541 18.3051C30.6795 18.7893 30.5813 19.2656 30.4608 19.7333H24.7195C24.6096 18.6011 24.5461 17.3493 24.5333 15.9541Z" fill="white"></path><path d="M30.1376 20.8C29.4288 22.8821 28.2731 24.7584 26.7835 26.3147C26.7584 26.2917 26.7328 26.2693 26.7077 26.2448C26.6848 26.2219 26.6613 26.2 26.6389 26.1755C26.5888 26.1211 26.5397 26.0619 26.4912 26C26.4773 25.9819 26.4624 25.9664 26.4485 25.9477C26.3877 25.8661 26.3285 25.7776 26.2704 25.6827C26.2528 25.6544 26.2363 25.6224 26.2192 25.5925C26.1781 25.5216 26.1371 25.4485 26.0971 25.3701C26.0757 25.3285 26.0544 25.2843 26.0336 25.2405C25.9973 25.1653 25.9611 25.0869 25.9253 25.0053C25.904 24.9568 25.8832 24.9083 25.8619 24.8576C25.8245 24.7675 25.7867 24.6715 25.7493 24.5733C25.7312 24.5253 25.7125 24.4789 25.6944 24.4288C25.6389 24.2773 25.5835 24.1195 25.5269 23.9488C25.4629 23.7541 25.4043 23.5483 25.3461 23.3397C25.3056 23.1893 25.2645 23.0293 25.2224 22.8544C25.0709 22.2293 24.944 21.5461 24.8432 20.8005L30.1376 20.8Z" fill="white"></path><path d="M1.8624 20.8H6.48587C6.3216 21.7973 6.12373 22.8176 5.89547 23.8139C5.87947 23.8837 5.8624 23.9525 5.8464 24.0224C5.78133 24.3003 5.71413 24.5755 5.6448 24.8475C5.62027 24.9451 5.5952 25.0427 5.57013 25.1392C5.4832 25.472 5.39467 25.8005 5.30293 26.1189C5.28213 26.1915 5.2528 26.2581 5.22827 26.3275C5.13707 26.2325 5.04427 26.1392 4.95573 26.0416C4.95307 26.0384 4.94987 26.0352 4.9472 26.032C3.58613 24.5333 2.52853 22.7563 1.8624 20.8Z" fill="white"></path><path d="M1.09333 16.8597C1.0912 16.8251 1.08747 16.7909 1.08587 16.7568C1.07307 16.5061 1.06667 16.2539 1.06667 16C1.06667 15.6955 1.07893 15.392 1.09707 15.0896C1.10293 14.9963 1.11093 14.904 1.1184 14.8117C1.13547 14.5963 1.15733 14.3819 1.18347 14.1675C1.19573 14.0683 1.20693 13.9691 1.22133 13.8704C1.25707 13.6203 1.2992 13.3712 1.34773 13.1232C1.36587 13.0315 1.38507 12.9403 1.40427 12.8491C1.45333 12.6197 1.50827 12.3915 1.56853 12.1643C1.58133 12.1157 1.59627 12.0683 1.6096 12.0197C2.33013 12.1733 3.09013 12.3883 3.87573 12.6608C5.49493 13.224 7.0656 14.8251 6.92427 17.1333C6.87573 17.9275 6.77813 18.8123 6.64853 19.7333H1.5392C1.35573 19.0235 1.224 18.2928 1.14667 17.5467L1.14347 17.5205C1.1216 17.3019 1.1056 17.0811 1.09333 16.8597Z" fill="white"></path><path d="M21.8085 29.7573C21.8085 29.7573 21.8064 29.7584 21.8048 29.7589C21.5893 29.8501 21.3707 29.936 21.1504 30.0176C21.1317 30.0245 21.1136 30.0309 21.0949 30.0373C20.8933 30.1109 20.6891 30.1797 20.4832 30.2448C20.448 30.256 20.4123 30.2667 20.3771 30.2779C20.1883 30.336 19.9979 30.3899 19.8059 30.4405C19.756 30.4538 19.7061 30.4665 19.6562 30.4793L19.6555 30.4795C19.4779 30.5243 19.2987 30.5653 19.1189 30.6037C19.056 30.6171 18.9925 30.6309 18.9291 30.6437C18.7611 30.6773 18.5915 30.7067 18.4219 30.7344C18.3477 30.7467 18.2741 30.7595 18.2 30.7707C18.0363 30.7952 17.8709 30.8149 17.7056 30.8336C17.6267 30.8427 17.5488 30.8533 17.4699 30.8608C17.2992 30.8773 17.1269 30.8891 16.9541 30.9003C16.8816 30.9051 16.8091 30.912 16.736 30.9152C16.4923 30.9264 16.2469 30.9333 16 30.9333C15.7552 30.9333 15.512 30.9264 15.2704 30.9147C15.1872 30.9104 15.104 30.9029 15.0208 30.8976C14.8624 30.8875 14.7045 30.8768 14.5477 30.8613C14.4501 30.8517 14.3531 30.8395 14.256 30.8277C14.1147 30.8112 13.9728 30.7941 13.8325 30.7739C13.7317 30.7589 13.6315 30.7419 13.5312 30.7253C13.3941 30.7024 13.2576 30.6784 13.1221 30.6523C13.024 30.6331 12.9269 30.6123 12.8293 30.5909C12.6907 30.5611 12.5531 30.5291 12.416 30.4955C12.3243 30.4731 12.2331 30.4496 12.1419 30.4251C11.9984 30.3867 11.8555 30.3461 11.7141 30.3035C11.632 30.2789 11.5499 30.2544 11.4683 30.2283C11.3152 30.1792 11.1632 30.1275 11.0117 30.0736C10.9435 30.0491 10.8747 30.0256 10.8064 30.0005C10.6379 29.9376 10.4715 29.8715 10.3061 29.8027C10.2565 29.7824 10.2064 29.7627 10.1573 29.7419C9.96747 29.6608 9.77973 29.5755 9.5936 29.4864C9.56853 29.4747 9.54347 29.464 9.51893 29.4517C8.65653 29.0347 7.84 28.5371 7.07947 27.9685C7.05173 27.9477 7.02453 27.9253 6.9968 27.9045C6.84053 27.7861 6.68587 27.6656 6.5344 27.5413C6.4704 27.4885 6.408 27.4331 6.344 27.3787C6.248 27.2971 6.15147 27.2149 6.0576 27.1307C6.06667 27.1109 6.072 27.0885 6.08107 27.0688C6.17653 26.8597 6.26133 26.6443 6.328 26.4149C6.4176 26.104 6.5056 25.7787 6.59253 25.4475L6.60336 25.406C6.62801 25.3117 6.65261 25.2175 6.6768 25.1221C6.752 24.8272 6.8256 24.5285 6.89653 24.2251C6.93173 24.0741 6.9648 23.9221 6.99893 23.7701C7.02133 23.6688 7.04533 23.5685 7.0672 23.4667H9.2656C9.29067 23.5696 9.3184 23.6677 9.34507 23.768C9.39733 23.9717 9.45013 24.1659 9.50453 24.344C9.576 24.5781 9.64853 24.7979 9.72213 25.0053C10.8283 28.1099 12.2299 28.2667 15.9995 28.2667C18.3221 28.2667 21.0944 27.8869 21.9211 24.9269C22.0021 24.6357 22.0843 24.3248 22.1659 24.0048C22.2107 23.8309 22.2544 23.6576 22.2976 23.4837C22.2992 23.4779 22.3003 23.4725 22.3019 23.4667H24.2715C24.2923 23.5445 24.3163 23.6165 24.3381 23.6928C24.3963 23.9029 24.4539 24.1013 24.5141 24.2827C24.6 24.5435 24.6891 24.7883 24.7813 25.0261C24.8005 25.0763 24.8208 25.128 24.8405 25.1771C24.9333 25.4064 25.0304 25.6251 25.1344 25.8304C25.1525 25.8661 25.1728 25.9003 25.1915 25.9355C25.2896 26.12 25.3947 26.2944 25.5072 26.4571C25.5259 26.4843 25.5435 26.5136 25.5627 26.5403C25.6875 26.712 25.8251 26.8683 25.9723 27.0128C25.9888 27.0288 26.0011 27.0496 26.0176 27.0651C25.8491 27.2181 25.6768 27.3669 25.5024 27.512C24.3936 28.4283 23.1509 29.1888 21.8085 29.7573Z" fill="#CCE0FF"></path><path d="M30.6923 13.344C29.4352 6.37333 23.3275 1.06667 16 1.06667C9.51893 1.06667 3.992 5.2176 1.93067 10.9995C2.66507 11.1605 3.4336 11.3787 4.2256 11.6539C6.22507 12.3483 8.16427 14.3328 7.9888 17.1989C7.9408 17.9851 7.84907 18.8437 7.728 19.7333H8.69067C8.59733 18.624 8.5456 17.3989 8.53387 16.0347C8.512 13.4549 12.5813 9.59733 15.1541 9.12267C15.5003 9.05813 15.8155 9.0496 16.0891 9.09547C18.3167 9.47673 23.4169 13.2424 23.4666 15.9352C23.4691 13.7216 26.1048 13.5808 28.4309 13.4565L28.4918 13.4533C28.8009 13.4368 29.1076 13.4205 29.4059 13.3989C29.8213 13.3691 30.2565 13.3531 30.6923 13.344Z" fill="#EFF5FF"></path><path d="M9.04053 22.4H7.2848C7.38933 21.8629 7.48533 21.3285 7.57013 20.8H8.79733C8.86507 21.3675 8.9472 21.8955 9.04053 22.4Z" fill="#EFF5FF"></path><path d="M24.0261 22.4H22.5536C22.6741 21.8603 22.7813 21.3269 22.8805 20.8H23.7616C23.8347 21.3664 23.9237 21.8965 24.0261 22.4Z" fill="#EFF5FF"></path><path d="M23.6432 19.7328C23.5387 18.6112 23.4801 17.372 23.4669 15.9869C23.4668 16.0077 23.4663 16.0284 23.4656 16.0491C23.4272 17.1243 23.2853 18.3877 23.0672 19.7328H23.6432Z" fill="#EFF5FF"></path></svg> 